<svg xmlns="http://www.w3.org/2000/svg" xmlns:xlink="http://www.w3.org/1999/xlink" version="1.1" id="Your_Icon" x="0px" y="0px" width="100px" height="100px" viewBox="0 0 100 100" enable-background="new 0 0 100 100" xml:space="preserve">
<g>
	<path d="M88.564,30.542v-1.024h-8.341v-3.92l-9.041-3.351H48.624v20.906h22.559l9.041-3.347v-4.66h8.341v-1.264   c3.897,0,7.064,3.173,7.064,7.065v19.736c-1.854-1.715-4.342-2.773-7.064-2.773V56.96h-8.341v-3.92l-9.041-3.352H48.624v20.905   h22.559l9.041-3.346v-4.66h8.341v-1.335c3.897,0,7.064,3.166,7.064,7.063v2.277c0,3.897-3.167,7.065-7.064,7.065H1.891V81h86.674   c5.739,0,10.405-4.666,10.405-10.406V40.948C98.97,35.213,94.304,30.542,88.564,30.542z M60.61,23.555h9.265v4.465h-5.78v-3.813   H60.61V23.555z M59.302,41.844h-9.37v-1.309h4.682v-1.308h-4.682v-0.707h4.682v-1.309h-4.682v-0.707h4.682v-1.308h-4.682v-0.713   h4.682v-1.309h-4.682v-0.707h4.682V31.16h-4.682v-0.712h4.682v-1.309h-4.682v-0.707h4.682v-1.308h-4.682v-0.713h4.682v-1.303   h-4.682v-1.554h9.37V41.844z M69.875,41.844H60.61v-0.858h3.484v-3.902h5.78V41.844z M62.787,35.776v3.903h-2.828V25.515h2.828   v3.814h11.608v6.447H62.787z M78.921,38.877l-7.738,2.7v-4.493h4.521V28.02h-4.521v-4.197l7.738,2.7V38.877z M60.61,50.997h9.265   v4.465h-5.78v-3.813H60.61V50.997z M59.302,69.286h-9.37v-1.309h4.682v-1.309h-4.682v-0.707h4.682v-1.309h-4.682v-0.707h4.682   V62.64h-4.682v-0.715h4.682v-1.308h-4.682V59.91h4.682v-1.308h-4.682V57.89h4.682v-1.309h-4.682v-0.707h4.682v-1.309h-4.682v-0.713   h4.682V52.55h-4.682v-1.553h9.37V69.286z M69.875,69.286H60.61v-0.857h3.484v-3.903h5.78V69.286z M62.787,63.218v3.902h-2.828   V52.957h2.828v3.813h11.608v6.447H62.787z M78.921,66.318l-7.738,2.7v-4.493h4.521v-9.063h-4.521v-4.198l7.738,2.701V66.318z"/>
</g>
<path d="M39.137,21.685H8.794C4.502,21.685,1,25.181,1,29.479v33.399c0,4.298,3.502,7.794,7.794,7.794h30.342  c4.298,0,7.794-3.496,7.794-7.794V29.479C46.931,25.181,43.435,21.685,39.137,21.685z M8.794,68.446  c-3.067,0-5.567-2.496-5.567-5.568V29.479c0-3.073,2.5-5.567,5.567-5.567h5.228c-1.447,1.408-2.35,3.385-2.35,5.567v33.399  c0,2.178,0.897,4.152,2.344,5.568H8.794z M44.704,62.878c0,3.072-2.5,5.568-5.567,5.568h-19.67c-3.067,0-5.567-2.496-5.567-5.568  V29.479c0-3.073,2.5-5.567,5.567-5.567h19.67c3.067,0,5.567,2.494,5.567,5.567V62.878z"/>
<path d="M20.625,26.366c-1.837,0-3.34,1.498-3.34,3.341s1.503,3.341,3.34,3.341c1.843,0,3.34-1.498,3.34-3.341  S22.468,26.366,20.625,26.366z M20.625,31.377c-0.919,0-1.67-0.746-1.67-1.67c0-0.919,0.751-1.67,1.67-1.67  c0.924,0,1.67,0.751,1.67,1.67C22.295,30.631,21.549,31.377,20.625,31.377z"/>
<path d="M20.625,35.436c-1.904,0-3.452,1.548-3.452,3.452c0,1.904,1.548,3.452,3.452,3.452s3.458-1.548,3.458-3.452  C24.083,36.984,22.529,35.436,20.625,35.436z M20.625,40.669c-0.979,0-1.782-0.796-1.782-1.782c0-0.979,0.802-1.781,1.782-1.781  c0.985,0,1.787,0.802,1.787,1.781C22.412,39.873,21.61,40.669,20.625,40.669z"/>
<rect x="5.711" y="53.648" width="3.897" height="9.464"/>
<rect x="5.711" y="41.446" width="3.897" height="9.465"/>
</svg>